<?xml version="1.0" encoding="utf-8"?>
<!-- Generator: Adobe Illustrator 16.0.0, SVG Export Plug-In . SVG Version: 6.00 Build 0)  -->
<!DOCTYPE svg PUBLIC "-//W3C//DTD SVG 1.1//EN" "http://www.w3.org/Graphics/SVG/1.1/DTD/svg11.dtd">
<svg version="1.1" id="Layer_1" xmlns="http://www.w3.org/2000/svg" xmlns:xlink="http://www.w3.org/1999/xlink" x="0px" y="0px"
	 width="32.669px" height="25.181px" viewBox="0 0 32.669 25.181" enable-background="new 0 0 32.669 25.181" xml:space="preserve">
<path fill="#222222" stroke="#000000" stroke-miterlimit="10" d="M31.252,4.59c0,1.246-1.01,2.257-2.256,2.257H3.508
	c-1.246,0-2.256-1.011-2.256-2.257l0,0c0-1.246,1.01-2.257,2.256-2.257h25.488C30.243,2.333,31.252,3.344,31.252,4.59L31.252,4.59z"
	/>
<path fill="#222222" stroke="#000000" stroke-miterlimit="10" d="M31.252,12.681c0,1.246-1.01,2.256-2.256,2.256H3.508
	c-1.246,0-2.256-1.01-2.256-2.256l0,0c0-1.246,1.01-2.256,2.256-2.256h25.488C30.243,10.425,31.252,11.435,31.252,12.681
	L31.252,12.681z"/>
<path fill="#222222" stroke="#000000" stroke-miterlimit="10" d="M31.252,20.772c0,1.246-1.01,2.256-2.256,2.256H3.508
	c-1.246,0-2.256-1.01-2.256-2.256l0,0c0-1.246,1.01-2.256,2.256-2.256h25.488C30.243,18.517,31.252,19.526,31.252,20.772
	L31.252,20.772z"/>
</svg>
